<svg xmlns="http://www.w3.org/2000/svg" enable-background="new 0 0 32 32" viewBox="0 0 32 32" id="amazon-aws"><path fill="#E3F8FA" d="M26,32H6c-3.314,0-6-2.686-6-6V6c0-3.314,2.686-6,6-6h20c3.314,0,6,2.686,6,6v20C32,29.314,29.314,32,26,32z"></path><path fill="#E3F8FA" d="M26,32H6c-3.314,0-6-2.686-6-6V6c0-3.314,2.686-6,6-6h20c3.314,0,6,2.686,6,6v20C32,29.314,29.314,32,26,32z"></path><polygon fill="#8CE1EB" points="21.46 16.22 21.459 16.22 21.459 16.22"></polygon><path fill="#8CE1EB" d="M8.07,17.785c2.087,1.903,4.848,3.048,7.914,3.048c2.187,0,4.731-0.693,6.482-2c0.287-0.216,0.037-0.544-0.255-0.409c-1.964,0.839-4.098,1.247-6.04,1.247c-2.879,0-5.662-0.802-7.918-2.124C8.054,17.43,7.906,17.635,8.07,17.785z"></path><path fill="#26C6DA" d="M19.454 11.44c0-.091-.049-.135-.133-.135h-.494c-.007-.001-.015-.001-.023-.001-.069 0-.133.02-.186.055-.037.032-.075.102-.107.21l-.921 3.602-.841-3.602c-.021-.102-.059-.178-.101-.21-.043-.037-.112-.054-.213-.054h-.424c-.008-.001-.015-.001-.023-.001-.071 0-.137.02-.191.055-.042.032-.074.102-.101.21l-.83 3.559-.895-3.559c-.031-.102-.063-.178-.107-.21-.037-.037-.106-.054-.207-.054h-.522c-.085 0-.127.048-.127.135l.001.004c.008.076.025.149.047.212l1.25 4.156c.032.102.069.177.112.209.043.038.107.054.203.054l.457-.001c.095 0 .17-.016.213-.054.042-.038.073-.108.1-.216l.82-3.462.825 3.467c.021.108.058.178.1.216.043.038.113.054.213.054h.457c.007.001.013.001.019.001.068 0 .131-.02.183-.055.043-.032.08-.102.112-.209l1.282-4.156-.002.005c.017-.044.03-.089.039-.14C19.448 11.494 19.454 11.467 19.454 11.44zM22.455 14.801c0 .005 0 .01 0 .015 0 .209-.109.393-.277.496-.181.119-.442.178-.777.178-.213 0-.421-.022-.633-.065-.208-.043-.405-.107-.585-.188-.053-.022-.101-.043-.133-.054-.032-.011-.064-.016-.096-.016-.079 0-.122.054-.122.166v.274c.001.055.012.106.032.151.021.049.079.102.165.15.139.081.346.151.612.216.266.064.542.096.819.096.272 0 .521-.038.761-.112.229-.07.425-.166.591-.301.165-.129.293-.29.389-.474.09-.183.138-.393.138-.624 0-.28-.08-.532-.245-.752-.165-.22-.442-.393-.825-.517l-.756-.241c-.282-.092-.479-.194-.585-.296-.107-.102-.16-.231-.16-.382 0-.22.085-.376.25-.478.165-.102.405-.15.708-.15.012 0 .025 0 .037 0 .356 0 .695.077.984.209l-.003-.001c.061.034.129.057.205.066.08 0 .123-.059.123-.172v-.252c.001-.005.001-.011.001-.018 0-.06-.018-.115-.048-.16l-.001-.001c-.042-.055-.095-.1-.159-.133-.053-.032-.128-.065-.224-.097-.095-.032-.197-.059-.303-.086-.112-.022-.223-.043-.345-.059-.117-.016-.24-.022-.357-.022-.234 0-.457.028-.671.092-.213.064-.393.156-.553.28-.16.118-.287.269-.383.44-.095.172-.144.371-.144.597.001.296.101.567.267.78.175.242.463.424.851.548l.771.242c.261.086.442.178.538.28.089.094.144.222.144.362C22.455 14.791 22.455 14.796 22.455 14.801 22.455 14.8 22.455 14.801 22.455 14.801z"></path><path fill="#8CE1EB" d="M22.95,20.113c0.937-0.795,1.181-2.456,0.99-2.699c-0.191-0.236-1.836-0.44-2.836,0.269c-0.155,0.113-0.128,0.264,0.042,0.242c0.569-0.07,1.825-0.22,2.049,0.069c0.223,0.286-0.25,1.485-0.463,2.017C22.668,20.172,22.806,20.237,22.95,20.113z"></path><path fill="#26C6DA" d="M11.013,13.296c-0.197-0.027-0.383-0.043-0.564-0.043c-0.548,0-0.979,0.14-1.303,0.42c-0.325,0.279-0.484,0.651-0.484,1.107c0,0.43,0.133,0.775,0.393,1.033c0.261,0.258,0.617,0.387,1.064,0.387c0.628,0,1.15-0.247,1.565-0.742l0.011,0.025c0.051,0.106,0.106,0.21,0.155,0.292l0.004,0.007c0.055,0.088,0.118,0.171,0.187,0.246c0.053,0.048,0.106,0.075,0.159,0.075h0.001c0.051-0.002,0.099-0.02,0.138-0.049l0.335-0.226c0.069-0.054,0.101-0.108,0.101-0.162c0-0.038-0.011-0.081-0.037-0.123c-0.075-0.14-0.128-0.269-0.171-0.388c-0.037-0.118-0.059-0.279-0.059-0.478l-0.011,0.001v-1.742c0-0.591-0.149-1.033-0.441-1.322c-0.298-0.29-0.761-0.436-1.394-0.436c-0.01,0-0.021,0-0.031,0c-0.284,0-0.56,0.037-0.8,0.102c-0.261,0.065-0.484,0.145-0.67,0.242l-0.003,0.001c-0.057,0.025-0.107,0.063-0.147,0.111c-0.027,0.038-0.037,0.102-0.037,0.189v0.263c0,0.112,0.037,0.166,0.112,0.166h0.001c0.03-0.001,0.059-0.007,0.084-0.015l0.011-0.003c0.064-0.02,0.126-0.044,0.176-0.067c0.186-0.075,0.378-0.135,0.575-0.183c0.197-0.048,0.389-0.069,0.575-0.069c0.409,0,0.697,0.08,0.867,0.247c0.165,0.166,0.25,0.451,0.25,0.86v0.393C11.413,13.366,11.21,13.323,11.013,13.296z M11.637,14.016v0.226c0,0.183-0.022,0.339-0.053,0.467c-0.032,0.129-0.096,0.242-0.181,0.345c-0.143,0.161-0.314,0.279-0.505,0.344c-0.192,0.065-0.373,0.097-0.548,0.097c-0.245,0-0.431-0.065-0.559-0.199c-0.133-0.129-0.197-0.317-0.197-0.57c0-0.269,0.085-0.473,0.26-0.618c0.176-0.145,0.437-0.216,0.793-0.216c0.177,0,0.35,0.012,0.5,0.032l0.023,0.003C11.339,13.95,11.505,13.982,11.637,14.016z"></path></svg>